<?xml version="1.0" standalone="no"?>
<!DOCTYPE svg PUBLIC "-//W3C//DTD SVG 20010904//EN"
 "http://www.w3.org/TR/2001/REC-SVG-20010904/DTD/svg10.dtd">
<svg version="1.0" xmlns="http://www.w3.org/2000/svg"
 width="450.000000pt" height="450.000000pt" viewBox="0 0 450.000000 450.000000"
 preserveAspectRatio="xMidYMid meet">
<metadata>
Created by potrace 1.16, written by Peter Selinger 2001-2019
</metadata>
<g transform="translate(0.000000,450.000000) scale(0.100000,-0.100000)"
fill="#000000" stroke="none">
<path d="M0 2250 l0 -2250 2250 0 2250 0 0 2250 0 2250 -2250 0 -2250 0 0
-2250z m3256 234 c350 -91 598 -381 630 -740 l7 -74 -421 0 -421 0 -3 138 c-2
75 -2 265 0 421 l3 284 74 -7 c40 -4 99 -13 131 -22z m-638 -128 c23 -12 31
-12 52 0 34 18 114 18 151 -1 44 -23 69 -71 69 -130 0 -59 -25 -107 -69 -130
-37 -19 -117 -19 -151 -1 -21 12 -29 12 -52 0 -36 -19 -112 -18 -149 1 -63 33
-90 136 -54 206 33 62 136 90 203 55z m-512 -170 l34 -34 0 -782 c0 -860 3
-816 -60 -854 -37 -21 -123 -21 -160 0 -35 21 -60 64 -60 103 0 27 -4 31 -25
31 -34 0 -94 26 -124 53 -43 40 -61 94 -61 190 0 82 -1 87 -21 87 -38 0 -87
31 -103 65 -14 28 -16 84 -16 369 0 262 -3 336 -12 337 -10 0 -10 2 0 6 10 4
12 48 11 193 -1 199 1 213 47 249 25 20 39 21 271 21 l245 0 34 -34z"/>
<path d="M2546 2269 c-32 -25 -35 -70 -6 -99 26 -26 68 -25 97 2 13 12 23 17
23 11 0 -6 14 -16 31 -23 27 -11 33 -11 57 7 35 26 41 74 13 102 -27 27 -69
27 -98 -1 -13 -12 -23 -17 -23 -11 0 9 -42 33 -59 33 -5 0 -20 -9 -35 -21z"/>
</g>
</svg>
